# xmcd
#
# Track frame offsets:
#	150
#	15635
#	31014
#	45749
#	62268
#	81080
#	99988
#	118889
#	129704
#	142653
#	154418
#	171927
#	184499
#	199642
#	213844
#	224863
#
# Disc length: 3208 seconds
#
# Revision: 0
# Processed by: cddbd v1.5.2PL0 Copyright (c) Steve Scherf et al.
# Submitted via: EasyCDDAExtractor 10.2.0.1
#
DISCID=e10c8610
DTITLE=Various Artist - Crossroads May 2000
DYEAR=2000
DGENRE=Gospel
TTITLE0=The Kingsmen - Getcha To The Other Side
TTITLE1=The Isaacs - Family Chain
TTITLE2=John Bowman - Remember Me
TTITLE3=New Tradition - Cradle To Cross To Crown
TTITLE4=David Johnson - What Falls From The Table
TTITLE5=The Booth Brothers - The Lamb
TTITLE6=Squire Parsons Trio - He Saved The Best For Last
TTITLE7=Poet Voices - Gonna Walk
TTITLE8=The Talley Trio - Searching
TTITLE9=Kirk Talley - Redeemed And Washed White As Snow
TTITLE10=Mended Wings - Put Your Hand In The Hand
TTITLE11=The McKameys - The Blood
TTITLE12=The Perry Sisters - He Took The Grave Clothes
TTITLE13=Amy Lambert - I Can't Lose For Winning
TTITLE14=The Kingdom Heirs - I'll Stand
TTITLE15=Won By One - Somewhere In Gloryland
EXTD=
EXTT0=
EXTT1=
EXTT2=
EXTT3=
EXTT4=
EXTT5=
EXTT6=
EXTT7=
EXTT8=
EXTT9=
EXTT10=
EXTT11=
EXTT12=
EXTT13=
EXTT14=
EXTT15=
PLAYORDER=
